<?xml version="1.0" encoding="UTF-8" standalone="no"?>
<svg
   fill="#000000"
   width="800px"
   height="800px"
   viewBox="0 0 32 32"
   id="Layer_1"
   data-name="Layer 1"
   version="1.1"
   sodipodi:docname="weather-station.svg"
   inkscape:version="1.3 (0e150ed6c4, 2023-07-21)"
   xmlns:inkscape="http://www.inkscape.org/namespaces/inkscape"
   xmlns:sodipodi="http://sodipodi.sourceforge.net/DTD/sodipodi-0.dtd"
   xmlns="http://www.w3.org/2000/svg"
   xmlns:svg="http://www.w3.org/2000/svg">
  <sodipodi:namedview
     id="namedview5"
     pagecolor="#ffffff"
     bordercolor="#000000"
     borderopacity="0.25"
     inkscape:showpageshadow="2"
     inkscape:pageopacity="0.0"
     inkscape:pagecheckerboard="0"
     inkscape:deskcolor="#d1d1d1"
     inkscape:zoom="1.0475"
     inkscape:cx="400.47733"
     inkscape:cy="581.38425"
     inkscape:window-width="1920"
     inkscape:window-height="1094"
     inkscape:window-x="-9"
     inkscape:window-y="-9"
     inkscape:window-maximized="1"
     inkscape:current-layer="Layer_1" />
  <defs
     id="defs1">
    <style
       id="style1">&#10;			.cls-1 {&#10;			fill: none;&#10;			}&#10;		</style>
  </defs>
  <path
     d="M 17,28 V 17 h 1 c 1.104044,-0.0013 1.998733,-0.895956 2,-2 V 11 C 19.998733,9.8959559 19.104044,9.0012675 18,9 h -4 c -1.104044,0.00127 -1.998733,0.8959559 -2,2 v 4 c 0.0013,1.104044 0.895956,1.998733 2,2 h 1 V 28 Z M 14,11 h 4 l 0.0015,4 H 14 Z"
     id="path1"
     sodipodi:nodetypes="cccccccccccccccccc" />
  <path
     d="M9.3325,18.2168a7.0007,7.0007,0,0,1,0-10.4341l1.334,1.49a5,5,0,0,0,0,7.4537Z"
     id="path2"
     transform="translate(0 0)" />
  <path
     d="M22.667,18.2168l-1.334-1.49a4.9995,4.9995,0,0,0,0-7.4537l1.334-1.49a7,7,0,0,1,0,10.4341Z"
     id="path3"
     transform="translate(0 0)" />
  <path
     d="M6.3994,21.8008a11.0019,11.0019,0,0,1,0-17.6006L7.6,5.8a9.0009,9.0009,0,0,0,0,14.4014Z"
     id="path4"
     transform="translate(0 0)" />
  <path
     d="M25.6006,21.8008l-1.2012-1.6a9.001,9.001,0,0,0,0-14.4019l1.2012-1.6a11.002,11.002,0,0,1,0,17.6011Z"
     id="path5"
     transform="translate(0 0)" />
  <rect
     id="_Transparent_Rectangle_"
     data-name="&lt;Transparent Rectangle&gt;"
     class="cls-1"
     width="32"
     height="32" />
</svg>
