<?xml version="1.0" encoding="utf-8"?>
<!-- Generator: Adobe Illustrator 16.0.4, SVG Export Plug-In . SVG Version: 6.00 Build 0)  -->
<!DOCTYPE svg PUBLIC "-//W3C//DTD SVG 1.1//EN" "http://www.w3.org/Graphics/SVG/1.1/DTD/svg11.dtd">
<svg version="1.1" id="_x31_" xmlns="http://www.w3.org/2000/svg" xmlns:xlink="http://www.w3.org/1999/xlink" x="0px" y="0px"
	 width="40px" height="40px" viewBox="0 0 40 40" enable-background="new 0 0 40 40" xml:space="preserve">
<path fill="#FFC600" d="M27.721,12.862c-0.438,0.438-1.147,0.438-1.585,0c-0.438-0.438-0.438-1.147,0-1.586l2.591-2.59
	c0.439-0.438,1.149-0.438,1.585,0c0.439,0.438,0.44,1.147,0,1.585L27.721,12.862z M18.999,28.051c-4.438,0-8.05-3.613-8.05-8.051
	c0-4.438,3.612-8.05,8.05-8.05c4.438,0,8.05,3.612,8.05,8.05C27.049,24.438,23.438,28.051,18.999,28.051z M10.277,12.862
	l-2.592-2.591c-0.438-0.438-0.438-1.147,0-1.585c0.438-0.438,1.148-0.438,1.586,0l2.591,2.59c0.438,0.438,0.438,1.147,0,1.586
	C11.425,13.3,10.714,13.3,10.277,12.862z M10.278,27.138c0.438-0.439,1.148-0.438,1.586,0s0.438,1.146,0,1.584l-2.591,2.593
	c-0.438,0.438-1.148,0.438-1.585,0c-0.438-0.438-0.438-1.146,0-1.587L10.278,27.138z M27.721,27.136l2.591,2.592
	c0.44,0.438,0.44,1.146,0,1.584c-0.437,0.438-1.146,0.438-1.585,0l-2.591-2.59c-0.438-0.438-0.438-1.148,0-1.586
	C26.575,26.698,27.283,26.698,27.721,27.136z M19.918,8.786c0,0.619-0.387,1.121-1.006,1.121c-0.619-0.001-1.005-0.502-1.005-1.121
	V5.122c0-0.62,0.387-1.122,1.005-1.122s1.006,0.502,1.006,1.122V8.786z M7.786,20.919H4.121C3.502,20.919,3,20.531,3,19.914
	c0-0.622,0.502-1.006,1.121-1.006h3.665c0.62,0,1.121,0.384,1.121,1.006C8.907,20.531,8.406,20.919,7.786,20.919z M17.907,31.214
	c0-0.62,0.387-1.123,1.005-1.121c0.619,0,1.006,0.501,1.006,1.121v3.665c0,0.617-0.387,1.121-1.006,1.121
	c-0.62,0-1.005-0.504-1.005-1.121V31.214z M30.214,18.908h3.663c0.621,0,1.123,0.384,1.123,1.006c0,0.617-0.502,1.005-1.123,1.005
	h-3.663c-0.62,0-1.122-0.388-1.122-1.005C29.092,19.292,29.593,18.908,30.214,18.908z"/>
</svg>
