<?xml version="1.0" encoding="UTF-8" standalone="no"?>
<!-- Generator: Adobe Illustrator 16.0.4, SVG Export Plug-In . SVG Version: 6.00 Build 0)  -->

<svg
   version="1.1"
   id="_x34_"
   x="0px"
   y="0px"
   width="40px"
   height="40px"
   viewBox="0 0 40 40"
   enable-background="new 0 0 40 40"
   xml:space="preserve"
   sodipodi:docname="meteoswiss_icon_004.svg"
   inkscape:version="1.3 (0e150ed6c4, 2023-07-21)"
   xmlns:inkscape="http://www.inkscape.org/namespaces/inkscape"
   xmlns:sodipodi="http://sodipodi.sourceforge.net/DTD/sodipodi-0.dtd"
   xmlns="http://www.w3.org/2000/svg"
   xmlns:svg="http://www.w3.org/2000/svg"><defs
   id="defs5" /><sodipodi:namedview
   id="namedview5"
   pagecolor="#ffffff"
   bordercolor="#000000"
   borderopacity="0.25"
   inkscape:showpageshadow="2"
   inkscape:pageopacity="0.0"
   inkscape:pagecheckerboard="0"
   inkscape:deskcolor="#d1d1d1"
   inkscape:zoom="20.95"
   inkscape:cx="19.976134"
   inkscape:cy="20"
   inkscape:window-width="1920"
   inkscape:window-height="1094"
   inkscape:window-x="-9"
   inkscape:window-y="-9"
   inkscape:window-maximized="1"
   inkscape:current-layer="_x34_" />&#10;<path
   fill="#000000"
   d="M27.721,8.862c-0.438,0.438-1.147,0.438-1.585,0c-0.438-0.438-0.438-1.147,0-1.586l2.591-2.59  c0.439-0.438,1.149-0.438,1.585,0c0.439,0.438,0.44,1.147,0,1.585L27.721,8.862z M18.999,24.051c-4.438,0-8.05-3.613-8.05-8.051  c0-4.438,3.612-8.05,8.05-8.05c4.438,0,8.05,3.612,8.05,8.05C27.049,20.438,23.438,24.051,18.999,24.051z M10.277,8.862L7.685,6.271  c-0.438-0.438-0.438-1.147,0-1.585c0.438-0.438,1.148-0.438,1.586,0l2.591,2.59c0.438,0.438,0.438,1.147,0,1.586  C11.425,9.3,10.714,9.3,10.277,8.862z M10.278,23.138c0.438-0.439,1.148-0.438,1.586,0s0.438,1.146,0,1.584l-2.591,2.593  c-0.438,0.438-1.148,0.438-1.585,0c-0.438-0.438-0.438-1.146,0-1.587L10.278,23.138z M27.721,23.136l2.591,2.592  c0.44,0.438,0.44,1.146,0,1.584c-0.437,0.438-1.146,0.438-1.585,0l-2.591-2.59c-0.438-0.438-0.438-1.148,0-1.586  C26.575,22.698,27.283,22.698,27.721,23.136z M19.918,4.786c0,0.619-0.387,1.121-1.006,1.121c-0.619-0.001-1.005-0.502-1.005-1.121  V1.122c0-0.62,0.387-1.122,1.005-1.122s1.006,0.502,1.006,1.122V4.786z M7.786,16.919H4.121C3.502,16.919,3,16.532,3,15.914  c0-0.622,0.502-1.006,1.121-1.006h3.665c0.62,0,1.121,0.384,1.121,1.006C8.907,16.532,8.406,16.919,7.786,16.919z M17.907,27.214  c0-0.62,0.387-1.123,1.005-1.121c0.619,0,1.006,0.501,1.006,1.121v3.665c0,0.617-0.387,1.121-1.006,1.121  c-0.62,0-1.005-0.504-1.005-1.121V27.214z M30.214,14.908h3.663c0.621,0,1.123,0.384,1.123,1.006c0,0.618-0.502,1.005-1.123,1.005  h-3.663c-0.62,0-1.122-0.388-1.122-1.005C29.092,15.292,29.593,14.908,30.214,14.908z"
   id="path1" />&#10;<linearGradient
   id="SVGID_1_"
   gradientUnits="userSpaceOnUse"
   x1="39.0225"
   y1="-32.5063"
   x2="39.0225"
   y2="-31.498"
   gradientTransform="matrix(27.28 0 0 -16.564 -1041.0469 -510.4844)">&#10;	<stop
   offset="0"
   style="stop-color:#888888"
   id="stop1" />&#10;	<stop
   offset="1"
   style="stop-color:#BEBEBE"
   id="stop2" />&#10;</linearGradient>&#10;<path
   fill="url(#SVGID_1_)"
   d="M31.43,14.198c-0.626,0-1.224,0.102-1.788,0.284c-1.523-1.939-3.881-3.189-6.532-3.189  c-2.524,0-4.785,1.133-6.309,2.916c-0.071-0.002-0.138-0.01-0.209-0.01c-3.795,0-6.87,2.922-6.87,6.529  c0,3.607,3.075,6.531,6.87,6.531c0.825,0,1.614-0.146,2.347-0.398c1.227,0.717,2.648,1.133,4.171,1.133  c2.391,0,4.541-1.02,6.062-2.64c0.693,0.298,1.457,0.462,2.261,0.462c3.201,0,5.789-2.6,5.789-5.808  C37.219,16.796,34.629,14.198,31.43,14.198z"
   id="path2"
   style="fill:#ffffff;fill-opacity:1;stroke:#000000;stroke-opacity:1" />&#10;<linearGradient
   id="SVGID_2_"
   gradientUnits="userSpaceOnUse"
   x1="578"
   y1="844.9912"
   x2="578"
   y2="821.9443"
   gradientTransform="matrix(1 0 0 1 -559 -805)">&#10;	<stop
   offset="0"
   style="stop-color:#ffffff;stop-opacity:1;"
   id="stop3" />&#10;	<stop
   offset="1"
   style="stop-color:#BEBEBE"
   id="stop4" />&#10;</linearGradient>&#10;<path
   fill="url(#SVGID_2_)"
   d="M30,20.952c-0.863,0-1.691,0.141-2.471,0.394c-2.105-2.678-5.363-4.402-9.029-4.402  c-3.489,0-6.609,1.564-8.718,4.022c-0.097-0.002-0.191-0.014-0.288-0.014C4.25,20.952,0,24.988,0,29.965  c0,4.979,4.25,9.014,9.494,9.014c1.14,0,2.228-0.201,3.241-0.552c1.697,0.989,3.662,1.564,5.765,1.564  c3.307,0,6.275-1.405,8.374-3.642c0.96,0.406,2.017,0.635,3.126,0.635c4.419,0,8-3.59,8-8.019C38,24.54,34.419,20.952,30,20.952z"
   id="path4"
   style="fill:#ffffff;fill-opacity:1;stroke:#000000;stroke-opacity:1" />&#10;<path
   opacity="0.2"
   fill="#000000"
   enable-background="new    "
   d="M27.721,8.862c-0.438,0.438-1.147,0.438-1.585,0  c-0.438-0.438-0.438-1.147,0-1.586l2.591-2.59c0.439-0.438,1.149-0.438,1.585,0c0.439,0.438,0.44,1.147,0,1.585L27.721,8.862z   M18.999,24.051c-4.438,0-8.05-3.613-8.05-8.051c0-4.438,3.612-8.05,8.05-8.05c4.438,0,8.05,3.612,8.05,8.05  C27.049,20.438,23.438,24.051,18.999,24.051z M10.277,8.862L7.685,6.271c-0.438-0.438-0.438-1.147,0-1.585  c0.438-0.438,1.148-0.438,1.586,0l2.591,2.59c0.438,0.438,0.438,1.147,0,1.586C11.425,9.3,10.714,9.3,10.277,8.862z M10.278,23.138  c0.438-0.439,1.148-0.438,1.586,0s0.438,1.146,0,1.584l-2.591,2.593c-0.438,0.438-1.148,0.438-1.585,0  c-0.438-0.438-0.438-1.146,0-1.587L10.278,23.138z M27.721,23.136l2.591,2.592c0.44,0.438,0.44,1.146,0,1.584  c-0.437,0.438-1.146,0.438-1.585,0l-2.591-2.59c-0.438-0.438-0.438-1.148,0-1.586C26.575,22.698,27.283,22.698,27.721,23.136z   M19.918,4.786c0,0.619-0.387,1.121-1.006,1.121c-0.619-0.001-1.005-0.502-1.005-1.121V1.122c0-0.62,0.387-1.122,1.005-1.122  s1.006,0.502,1.006,1.122V4.786z M7.786,16.919H4.121C3.502,16.919,3,16.532,3,15.914c0-0.622,0.502-1.006,1.121-1.006h3.665  c0.62,0,1.121,0.384,1.121,1.006C8.907,16.532,8.406,16.919,7.786,16.919z M17.907,27.214c0-0.62,0.387-1.123,1.005-1.121  c0.619,0,1.006,0.501,1.006,1.121v3.665c0,0.617-0.387,1.121-1.006,1.121c-0.62,0-1.005-0.504-1.005-1.121V27.214z M30.214,14.908  h3.663c0.621,0,1.123,0.384,1.123,1.006c0,0.618-0.502,1.005-1.123,1.005h-3.663c-0.62,0-1.122-0.388-1.122-1.005  C29.092,15.292,29.593,14.908,30.214,14.908z"
   id="path5" />&#10;</svg>
